<svg width="139" height="50" viewBox="0 0 139 50" fill="none" xmlns="http://www.w3.org/2000/svg">
<path fill-rule="evenodd" clip-rule="evenodd" d="M39.127 16.4014V16.2148C39.127 15.0352 40.0869 14.0752 41.2666 14.0752H41.7432C42.9229 14.0752 43.8828 15.0352 43.8828 16.2148V16.4014H39.127ZM49.5078 38.4248H47.8477C47.877 38.1924 47.8916 37.9551 47.8916 37.7148C47.8916 34.542 45.3125 31.9629 42.1397 31.9629C38.9678 31.9629 36.3877 34.542 36.3877 37.7148C36.3877 37.9551 36.4033 38.1924 36.4316 38.4248H33.502C33.2324 38.4248 33.0137 38.2061 33.0137 37.9365V17.8662C33.0137 17.5967 33.2324 17.3779 33.502 17.3779H47.666C47.9014 17.3779 48.1025 17.5459 48.1455 17.7773L49.9873 27.749C49.9932 27.7783 49.9961 27.8086 49.9961 27.8379V37.9365C49.9961 38.2061 49.7773 38.4248 49.5078 38.4248ZM39.3652 27.2861V20.5771H36.7842V27.2861H39.3652ZM40.3418 20.5771V27.2861H45.8379L44.9512 20.5771H40.3418ZM38.8682 30.9951H36.7715C36.502 30.9951 36.2842 30.7764 36.2842 30.5068C36.2842 30.2363 36.502 30.0186 36.7715 30.0186H38.8682C39.1377 30.0186 39.3564 30.2363 39.3564 30.5068C39.3564 30.7764 39.1377 30.9951 38.8682 30.9951ZM32.1211 38.4248H26.8555C26.8848 38.1914 26.8994 37.9551 26.8994 37.7148C26.8994 34.542 24.3203 31.9629 21.1475 31.9629C18.6738 31.9629 16.5596 33.5322 15.749 35.7285C14.9385 33.5322 12.8252 31.9629 10.3506 31.9629C7.17871 31.9629 4.59863 34.542 4.59863 37.7148C4.59863 37.9551 4.61328 38.1924 4.64258 38.4248H2.9834C2.71387 38.4248 2.49512 38.2061 2.49512 37.9365V30.9316H32.0371V37.9365C32.0371 38.1074 32.0674 38.2725 32.1211 38.4248ZM2.49512 29.9551V24.9609H17.7549V29.9551H2.49512ZM2.49512 23.9844V20.2178C2.49512 19.9473 2.71387 19.7295 2.9834 19.7295H17.7549V23.9844H2.49512ZM18.7305 29.9551V24.9609H32.0371V29.9551H18.7305ZM18.7305 23.9844V19.7295H32.0371V23.9844H18.7305ZM11.875 27.6914H9.77832C9.64895 27.6914 9.52488 27.64 9.4334 27.5485C9.34192 27.4571 9.29053 27.333 9.29053 27.2036C9.29053 27.0742 9.34192 26.9502 9.4334 26.8587C9.52488 26.7672 9.64895 26.7158 9.77832 26.7158H11.875C12.0044 26.7158 12.1284 26.7672 12.2199 26.8587C12.3114 26.9502 12.3628 27.0742 12.3628 27.2036C12.3628 27.333 12.3114 27.4571 12.2199 27.5485C12.1284 27.64 12.0044 27.6914 11.875 27.6914ZM27.499 27.6914H25.4033C25.1328 27.6914 24.915 27.4736 24.915 27.2041C24.915 26.9336 25.1328 26.7158 25.4033 26.7158H27.499C27.6284 26.7158 27.7525 26.7672 27.8439 26.8587C27.9354 26.9502 27.9868 27.0742 27.9868 27.2036C27.9868 27.333 27.9354 27.4571 27.8439 27.5485C27.7525 27.64 27.6284 27.6914 27.499 27.6914Z" fill="#CC5E28"/>
<path fill-rule="evenodd" clip-rule="evenodd" d="M42.1396 42.4902C39.5068 42.4902 37.3643 40.3476 37.3643 37.7148C37.3643 35.0811 39.5068 32.9394 42.1396 32.9394C44.7734 32.9394 46.915 35.0811 46.915 37.7148C46.915 40.3476 44.7734 42.4902 42.1396 42.4902ZM10.3506 40.0732C9.0498 40.0732 7.99219 39.0146 7.99219 37.7148C7.99219 36.4141 9.0498 35.3564 10.3506 35.3564C11.6504 35.3564 12.709 36.4141 12.709 37.7148C12.709 39.0146 11.6514 40.0732 10.3506 40.0732ZM10.3506 36.333C9.58887 36.333 8.96875 36.9521 8.96875 37.7148C8.96875 38.4766 9.58887 39.0967 10.3506 39.0967C11.1123 39.0967 11.7324 38.4766 11.7324 37.7148C11.7324 36.9521 11.1123 36.333 10.3506 36.333ZM21.1475 40.0732C19.8477 40.0732 18.7891 39.0146 18.7891 37.7148C18.7891 36.4141 19.8477 35.3564 21.1475 35.3564C22.4482 35.3564 23.5059 36.4141 23.5059 37.7148C23.5059 39.0146 22.4482 40.0732 21.1475 40.0732ZM21.1475 36.333C20.3857 36.333 19.7656 36.9521 19.7656 37.7148C19.7656 38.4766 20.3857 39.0967 21.1475 39.0967C21.9102 39.0967 22.5303 38.4766 22.5303 37.7148C22.5303 36.9521 21.9102 36.333 21.1475 36.333ZM42.1396 40.0732C40.8398 40.0732 39.7812 39.0146 39.7812 37.7148C39.7812 36.4141 40.8398 35.3564 42.1396 35.3564C43.4404 35.3564 44.498 36.4141 44.498 37.7148C44.498 39.0146 43.4404 40.0732 42.1396 40.0732ZM42.1396 36.333C41.3779 36.333 40.7578 36.9521 40.7578 37.7148C40.7578 38.4766 41.3779 39.0967 42.1396 39.0967C42.9014 39.0967 43.5215 38.4766 43.5215 37.7148C43.5215 36.9521 42.9023 36.333 42.1396 36.333ZM10.3506 42.4902C7.71777 42.4902 5.5752 40.3476 5.5752 37.7148C5.5752 35.0811 7.71777 32.9394 10.3506 32.9394C12.9834 32.9394 15.126 35.0811 15.126 37.7148C15.126 40.3476 12.9834 42.4902 10.3506 42.4902ZM21.1475 42.4902C18.5146 42.4902 16.3721 40.3476 16.3721 37.7148C16.3721 35.0811 18.5146 32.9394 21.1475 32.9394C23.7812 32.9394 25.9229 35.0811 25.9229 37.7148C25.9229 40.3476 23.7812 42.4902 21.1475 42.4902ZM41.5049 11.916C41.2354 11.916 41.0166 11.6973 41.0166 11.4277V7.99805C41.0166 7.72852 41.2354 7.50977 41.5049 7.50977C41.7744 7.50977 41.9932 7.72852 41.9932 7.99805V11.4277C41.9932 11.6973 41.7744 11.916 41.5049 11.916ZM27.4844 20.7061H8.49023C8.2207 20.7061 8.00293 20.4873 8.00293 20.2178V16.7168C8.00293 16.4473 8.2207 16.2285 8.49023 16.2285H27.4844C27.7539 16.2285 27.9727 16.4473 27.9727 16.7168V20.2178C27.9727 20.4873 27.7539 20.7061 27.4844 20.7061ZM8.97852 19.7295H26.9961V17.2041H8.97852V19.7295Z" fill="#CC5E28"/>
<path fill-rule="evenodd" clip-rule="evenodd" d="M31.9297 17.2051H4.0459C3.77539 17.2051 3.55762 16.9863 3.55762 16.7168C3.55762 16.4473 3.77539 16.2285 4.0459 16.2285H31.9297C32.1992 16.2285 32.418 16.4473 32.418 16.7168C32.418 16.9863 32.1992 17.2051 31.9297 17.2051ZM31.9297 11.0801H4.0459C3.77539 11.0801 3.55762 10.8613 3.55762 10.5918C3.55762 10.3223 3.77539 10.1035 4.0459 10.1035H31.9297C32.1992 10.1035 32.418 10.3223 32.418 10.5918C32.418 10.8613 32.1992 11.0801 31.9297 11.0801Z" fill="#CC5E28"/>
<path fill-rule="evenodd" clip-rule="evenodd" d="M20.1631 17.2041C19.8936 17.2041 19.6748 16.9863 19.6748 16.7168V10.5918C19.6748 10.3223 19.8936 10.1035 20.1631 10.1035C20.4326 10.1035 20.6514 10.3223 20.6514 10.5918V16.7168C20.6514 16.9863 20.4326 17.2041 20.1631 17.2041ZM6.31738 17.2041C6.04785 17.2041 5.8291 16.9863 5.8291 16.7168V10.5918C5.8291 10.3223 6.04785 10.1035 6.31738 10.1035C6.58691 10.1035 6.80566 10.3223 6.80566 10.5918V16.7168C6.80566 16.9863 6.58691 17.2041 6.31738 17.2041ZM9.65137 17.2041C9.38184 17.2041 9.16406 16.9863 9.16406 16.7168V10.5918C9.16406 10.4624 9.21545 10.3384 9.30693 10.2469C9.39841 10.1554 9.52248 10.104 9.65186 10.104C9.78123 10.104 9.9053 10.1554 9.99678 10.2469C10.0883 10.3384 10.1396 10.4624 10.1396 10.5918V16.7168C10.1396 16.9863 9.92188 17.2041 9.65137 17.2041ZM12.9863 17.2041C12.7168 17.2041 12.498 16.9863 12.498 16.7168V10.5918C12.498 10.3223 12.7168 10.1035 12.9863 10.1035C13.2559 10.1035 13.4746 10.3223 13.4746 10.5918V16.7168C13.4746 16.9863 13.2559 17.2041 12.9863 17.2041ZM16.3203 17.2041C16.0508 17.2041 15.832 16.9863 15.832 16.7168V10.5918C15.832 10.3223 16.0508 10.1035 16.3203 10.1035C16.5898 10.1035 16.8086 10.3223 16.8086 10.5918V16.7168C16.8086 16.9863 16.5898 17.2041 16.3203 17.2041ZM22.9893 17.2041C22.7197 17.2041 22.501 16.9863 22.501 16.7168V10.5918C22.501 10.3223 22.7197 10.1035 22.9893 10.1035C23.2588 10.1035 23.4775 10.3223 23.4775 10.5918V16.7168C23.4775 16.9863 23.2588 17.2041 22.9893 17.2041ZM26.3232 17.2041C26.0537 17.2041 25.835 16.9863 25.835 16.7168V10.5918C25.835 10.3223 26.0537 10.1035 26.3232 10.1035C26.5928 10.1035 26.8115 10.3223 26.8115 10.5918V16.7168C26.8115 16.9863 26.5928 17.2041 26.3232 17.2041ZM29.6582 17.2041C29.3877 17.2041 29.1699 16.9863 29.1699 16.7168V10.5918C29.1699 10.4624 29.2213 10.3384 29.3128 10.2469C29.4043 10.1554 29.5283 10.104 29.6577 10.104C29.7871 10.104 29.9112 10.1554 30.0026 10.2469C30.0941 10.3384 30.1455 10.4624 30.1455 10.5918V16.7168C30.1455 16.9863 29.9277 17.2041 29.6582 17.2041ZM43.4814 13.2773C43.3984 13.2773 43.3145 13.2568 43.2383 13.2119C43.1262 13.1471 43.0444 13.0405 43.0109 12.9154C42.9774 12.7903 42.9949 12.6571 43.0596 12.5449L44.7744 9.5752C44.9092 9.3418 45.208 9.26172 45.4414 9.39649C45.6748 9.53125 45.7549 9.83008 45.6201 10.0635L43.9053 13.0332C43.8624 13.1076 43.8006 13.1694 43.7262 13.2122C43.6517 13.2551 43.5673 13.2776 43.4814 13.2773ZM39.5273 13.2773C39.3584 13.2773 39.1943 13.1904 39.1045 13.0332L37.3896 10.0635C37.2549 9.83008 37.335 9.53125 37.5684 9.39649C37.8018 9.26172 38.1006 9.3418 38.2354 9.5752L39.9502 12.5449C39.993 12.6192 40.0156 12.7034 40.0156 12.7891C40.0156 12.8748 39.993 12.959 39.9502 13.0332C39.9073 13.1074 39.8457 13.1691 39.7715 13.2119C39.6973 13.2548 39.6131 13.2773 39.5273 13.2773ZM2.9834 36.1836H0.779297C0.351562 36.1836 0.00390625 35.8359 0.00390625 35.4082V33.1826C0.00390625 32.7549 0.351562 32.4072 0.779297 32.4072H2.9834C3.25293 32.4072 3.47168 32.626 3.47168 32.8955V35.6953C3.47168 35.9648 3.25293 36.1836 2.9834 36.1836Z" fill="#CC5E28"/>
<path d="M56.155 42V21.315H65.955V24.71H61.23V29.47H65.36V33.285H61.23V42H56.155ZM68.2694 42V24.675H73.0294V42H68.2694ZM70.6144 22.855C70.031 22.855 69.5177 22.6567 69.0744 22.26C68.6544 21.84 68.4444 21.3383 68.4444 20.755C68.4444 20.1717 68.6544 19.6817 69.0744 19.285C69.5177 18.865 70.031 18.655 70.6144 18.655C71.221 18.655 71.7344 18.865 72.1544 19.285C72.5977 19.6817 72.8194 20.1717 72.8194 20.755C72.8194 21.3383 72.5977 21.84 72.1544 22.26C71.7344 22.6567 71.221 22.855 70.6144 22.855ZM75.9078 42V24.675H79.9678L80.3528 26.845C80.5162 26.3783 80.7728 25.9817 81.1228 25.655C81.4962 25.3283 81.8928 25.0833 82.3129 24.92C83.1062 24.5233 83.9812 24.43 84.9378 24.64V28.28C84.9145 28.2567 84.7278 28.2333 84.3778 28.21C84.0278 28.1633 83.6195 28.1633 83.1528 28.21C82.7095 28.2333 82.3362 28.3617 82.0329 28.595C81.5428 28.8517 81.1928 29.2367 80.9829 29.75C80.7729 30.2633 80.6679 30.87 80.6679 31.57V42H75.9078ZM92.4268 42.28C91.2134 42.28 90.1751 42.1517 89.3118 41.895C88.4484 41.615 87.7834 41.055 87.3168 40.215C86.8501 39.3517 86.6168 38.045 86.6168 36.295V28.875C86.6168 27.125 87.1068 25.935 88.0868 25.305C89.0901 24.6517 90.5368 24.325 92.4268 24.325C94.2934 24.325 95.7168 24.6517 96.6968 25.305C97.6768 25.935 98.1668 27.125 98.1668 28.875V33.705H91.3768V38.325C91.3768 38.885 91.4584 39.27 91.6218 39.48C91.8084 39.69 92.0768 39.795 92.4268 39.795C92.7768 39.795 93.0218 39.69 93.1618 39.48C93.3251 39.27 93.4068 38.885 93.4068 38.325V35.385H98.1668V36.26C98.1668 38.0333 97.9334 39.3517 97.4668 40.215C97.0234 41.055 96.3701 41.615 95.5068 41.895C94.6668 42.1517 93.6401 42.28 92.4268 42.28ZM91.3768 31.605H93.4068V28.595C93.4068 28.0583 93.3251 27.685 93.1618 27.475C93.0218 27.265 92.7768 27.16 92.4268 27.16C92.0768 27.16 91.8084 27.265 91.6218 27.475C91.4584 27.685 91.3768 28.0583 91.3768 28.595V31.605ZM99.9876 42V38.99L104.188 24.71H100.338V21.315H109.718V23.66L105.238 38.605H109.718V42H99.9876ZM117.445 42.28C116.232 42.28 115.193 42.14 114.33 41.86C113.467 41.58 112.802 41.02 112.335 40.18C111.868 39.3167 111.635 38.0217 111.635 36.295V29.26C111.635 27.4167 112.125 26.145 113.105 25.445C114.108 24.7217 115.555 24.36 117.445 24.36C119.335 24.36 120.77 24.71 121.75 25.41C122.73 26.11 123.22 27.3933 123.22 29.26V36.26C123.22 38.01 122.987 39.3167 122.52 40.18C122.077 41.02 121.423 41.58 120.56 41.86C119.697 42.14 118.658 42.28 117.445 42.28ZM117.445 39.515C117.772 39.515 118.017 39.41 118.18 39.2C118.367 38.9667 118.46 38.5583 118.46 37.975V28.665C118.46 28.1283 118.378 27.7433 118.215 27.51C118.052 27.2767 117.795 27.16 117.445 27.16C117.118 27.16 116.862 27.2767 116.675 27.51C116.488 27.72 116.395 28.105 116.395 28.665V37.975C116.395 38.5583 116.488 38.9667 116.675 39.2C116.862 39.41 117.118 39.515 117.445 39.515ZM125.842 42V24.675H129.867L130.287 26.775C130.473 26.0517 130.87 25.4683 131.477 25.025C132.083 24.5583 132.76 24.325 133.507 24.325C134.58 24.325 135.397 24.5117 135.957 24.885C136.517 25.2583 136.89 25.7833 137.077 26.46C137.287 27.1367 137.392 27.9533 137.392 28.91V42H132.632V29.155C132.632 28.9217 132.62 28.7233 132.597 28.56C132.573 28.3733 132.527 28.2217 132.457 28.105C132.387 27.965 132.282 27.86 132.142 27.79C132.025 27.72 131.85 27.685 131.617 27.685C131.453 27.685 131.302 27.7083 131.162 27.755C131.022 27.8017 130.905 27.8717 130.812 27.965C130.718 28.035 130.648 28.105 130.602 28.175V42H125.842Z" fill="#1C1C1C"/>
</svg>
